<svg xmlns="http://www.w3.org/2000/svg" viewBox="50 3 52 34">
  <path fill="#ffffff" d="m62.9 3.5c-6.8 0-12.3 4.9-12.3 17 0 7.8 2.5 15.7 12.3 15.7 7.8 0 11.4-5.1 11.4-15.7 0-8.5-2.2-17-11.4-17zm8.9 18.2c-1.8-0.9-3.7-0.1-4.1 2.4-0.5 3.1-1.1 7-4.9 7-3 0-4.2-2.7-4.7-6.7-0.2-1.9-1.9-4.2-4.8-2.7 0.8-2.2 2.3-3.5 4.4-4.4 0.3-3.2 1.3-8.1 5-8.1 2.8 0 4.6 2.8 5.1 8.1 1.7 0.6 3.3 2.2 4 3.8l0.2 0.5-0.2 0.1z"></path>
  <path fill="#ffffff" d="m89 3.5c-6.8 0-12.3 4.9-12.3 17 0.4 8.4 2.9 15.6 12.4 15.6 7.8 0 11.9-4.8 11.9-15.6-0.2-8-2.4-17-12-17zm9.5 18.2c-1.8-0.9-4.2-0.3-4.7 2.6-0.4 3.1-1.3 6.7-5 6.8-3.4 0-4.8-2.8-5.3-7-0.3-2-2.2-3.7-4.9-2.4 0.7-1.9 2.3-3.5 4.5-4.4 0.3-3.2 1.5-8 5.8-8 2.8 0 4.8 2.7 5.3 8 1.9 0.7 3.6 2.1 4.4 4.4h-0.1z"></path>
</svg>