<svg xmlns="http://www.w3.org/2000/svg" viewBox="0 0 150 45.4">
  <path fill="#1a1a22" d="m62.9 3.5c-6.8 0-12.3 4.9-12.3 17 0 7.8 2.5 15.7 12.3 15.7 7.8 0 11.4-5.1 11.4-15.7 0-8.5-2.2-17-11.4-17zm8.9 18.2c-1.8-0.9-3.7-0.1-4.1 2.4-0.5 3.1-1.1 7-4.9 7-3 0-4.2-2.7-4.7-6.7-0.2-1.9-1.9-4.2-4.8-2.7 0.8-2.2 2.3-3.5 4.4-4.4 0.3-3.2 1.3-8.1 5-8.1 2.8 0 4.6 2.8 5.1 8.1 1.7 0.6 3.3 2.2 4 3.8l0.2 0.5-0.2 0.1z"></path>
  <path fill="#1a1a22" d="m89 3.5c-6.8 0-12.3 4.9-12.3 17 0.4 8.4 2.9 15.6 12.4 15.6 7.8 0 11.9-4.8 11.9-15.6-0.2-8-2.4-17-12-17zm9.5 18.2c-1.8-0.9-4.2-0.3-4.7 2.6-0.4 3.1-1.3 6.7-5 6.8-3.4 0-4.8-2.8-5.3-7-0.3-2-2.2-3.7-4.9-2.4 0.7-1.9 2.3-3.5 4.5-4.4 0.3-3.2 1.5-8 5.8-8 2.8 0 4.8 2.7 5.3 8 1.9 0.7 3.6 2.1 4.4 4.4h-0.1z"></path>
  <path fill="#1a1a22" d="m16.2 19.3 3.3-4.7c-2.8-2.3-6.4-3.6-11.6-2.7-2.8 0.5-4.1 1.7-5.2 3.9-0.8 1.5-1.8 6.6 2.7 9 3.8 2.1 8.6 2.5 8.6 4.5 0 1.1-1.4 2-3.7 1.9-2.2-0.1-4.3-1.2-5.8-3.4l-3.2 4.4c2.1 2.1 5.2 3.9 9.8 3.9 5.9 0 9.5-2.6 9.4-7.6-0.4-4.4-4.1-6.1-9.1-7.5-2-0.5-3.9-1.1-3.9-2.7 0-0.9 1.6-1.8 3.2-1.8 2.2 0 3.9 0.9 5.5 2.8z"></path>
  <path fill="#1a1a22" d="m37.4 11.5c-3.1 0-5.4 1.2-7.4 3.8l-0.6-3.2h-7c0.3 1.3 0.7 4 0.7 5.2l-0.1 27 6.8-2.1 0.1-9.3c1.9 1.7 3.8 3.2 7.5 3.2 5.3-0.1 10.5-2.6 10.8-11.3 0.2-6-3.1-13.3-10.8-13.3zm-1.5 19.3c-3.1 0-5.9-2.1-6.2-6.1-0.2-4.6 2.5-7.7 6.2-7.7 2.8 0 5.4 2.1 5.4 6.6 0.1 4-1.6 7-5.4 7.2z"></path>
  <path fill="#1a1a22" d="m118.2 12.1c0.2 3.6-2.5 7.2-7.1 9v-21.1l-7.2 2.1v33.4h7.1l0.1-8.6 1.9-0.9 2.4 2.8c0.9 1 2.1 3.7 3.5 6.7h8.6l-9.5-12.4c3.8-3 7.1-6.2 7.5-11h-7.8z"></path>
  <path fill="#1a1a22" d="m143.7 12.1c-1.7 3.8-2.2 7.1-4.5 15l-4.8-13.2-0.1-0.3-0.1-0.4 0.1 0.4-0.1-0.4-0.1-0.2v-0.1l-0.2-0.8h-6.7l9.1 21.9c-1.8 3.7-2.9 5.3-6 4.2l-0.7-0.2-3.1 4.9c1.3 0.7 3.1 1.2 5.3 1.2 5.1-0.1 7.8-3.7 9.6-8.2l8.6-24c-2.1-0.1-4 0.2-6.3 0.2z"></path>
</svg>